<svg width="232" height="232" viewBox="0 0 232 232" fill="none" xmlns="http://www.w3.org/2000/svg">
<g clip-path="url(#clip0)">
<path d="M54.2754 29.3608C130.394 -13.7993 186.207 36.3724 211.614 75.6596C237.02 114.947 223.139 198.868 171.985 208.338C120.83 217.808 71.2096 222.544 41.8808 208.338C12.5521 194.133 -21.8433 72.5209 54.2754 29.3608Z" fill="#FEEBEF"/>
<g clip-path="url(#clip1)">
<path d="M71.7323 159.064L76.8996 224.196L148.981 229.396L143.771 132.76L80.4603 147.537C75.1193 148.751 71.4284 153.604 71.7323 159.064Z" fill="#D06060"/>
<path fill-rule="evenodd" clip-rule="evenodd" d="M92.966 147.102C93.4216 147.102 93.7909 147.472 93.7909 147.927L93.7909 224.369C93.7909 224.825 93.4216 225.194 92.966 225.194C92.5104 225.194 92.1411 224.825 92.1411 224.369L92.1411 147.927C92.1411 147.472 92.5104 147.102 92.966 147.102Z" fill="#771212"/>
<path fill-rule="evenodd" clip-rule="evenodd" d="M112.547 155.581C112.987 155.699 113.248 156.152 113.129 156.592C110.618 165.934 106.683 171.641 103.333 175.023C101.66 176.712 100.14 177.815 99.0256 178.5C98.4687 178.843 98.0137 179.081 97.6924 179.235C97.5318 179.312 97.4046 179.368 97.3147 179.406C97.2698 179.425 97.2342 179.44 97.2085 179.45L97.1773 179.462L97.1673 179.466L97.1638 179.467L97.1624 179.468C97.1618 179.468 97.1612 179.468 96.8742 178.695L97.1612 179.468C96.7341 179.627 96.2594 179.409 96.1008 178.982C95.9426 178.556 96.1593 178.082 96.585 177.922C96.5853 177.922 96.5856 177.922 96.5859 177.922C96.586 177.922 96.5861 177.922 96.5862 177.922C96.5862 177.922 96.5862 177.922 96.5862 177.922L96.5864 177.922L96.6005 177.916C96.6148 177.911 96.6389 177.901 96.6721 177.887C96.7386 177.859 96.842 177.813 96.9783 177.748C97.2511 177.617 97.6557 177.406 98.1613 177.095C99.1724 176.473 100.588 175.45 102.161 173.862C105.303 170.69 109.097 165.239 111.536 156.163C111.654 155.724 112.107 155.463 112.547 155.581Z" fill="#771212"/>
<path d="M185.109 135.924L138.386 131.07C133.697 130.594 129.181 123.14 129.832 116.9L134.826 61.9951L138.647 27.4141C138.951 24.554 141.469 22.474 144.292 22.7773L200.872 28.6708C202.479 28.8441 203.911 29.7975 204.78 31.2275C206.517 34.261 206.604 35.7777 206.169 40.4578L204.042 62.2117L198.18 121.927C197.311 129.25 190.624 136.487 185.109 135.924Z" fill="#771212"/>
<path d="M152.456 162.228C152.456 162.228 146.55 110.92 137.258 93.3258C135.217 89.469 135.521 82.0588 128.573 80.3254C115.546 78.1587 114.591 80.2821 107.991 79.3287C87.191 76.382 71.5154 104.289 71.3851 128.643C71.2115 152.694 71.3417 133.237 71.3851 143.594C71.3851 151.307 153.107 168.208 152.456 162.228Z" fill="#E4002B"/>
<path d="M127.227 68.1051C126.489 61.3015 121.408 49.7312 115.763 48.0845C108.815 46.0911 101.607 50.0345 99.4796 56.8814L99.4362 56.9681C98.3506 60.6082 98.9585 64.3349 100.739 67.3684C101.651 68.8851 101.52 70.8351 100.435 72.2652L92.4017 83.4021C91.2292 85.9156 97.3519 94.4091 110.596 97.0959C115.416 98.0926 119.888 94.3225 119.845 89.4256L117.543 77.812C117.5 76.2086 118.716 74.8219 120.323 74.6486C121.582 74.5186 122.798 74.2586 123.796 73.8685C126.098 72.9152 127.487 70.5751 127.227 68.1051Z" fill="#C599C6"/>
<path d="M119.932 66.1116C119.758 66.5016 119.628 66.935 119.454 67.325C119.324 67.6283 119.584 67.975 119.888 68.0617C120.236 68.1484 120.496 67.9317 120.626 67.6283C120.8 67.2383 120.93 66.805 121.104 66.415C121.234 66.1116 120.974 65.7649 120.67 65.6783C120.323 65.6349 120.062 65.8516 119.932 66.1116Z" fill="#771212"/>
<path d="M123.362 67.0215C123.232 67.5416 123.102 68.0616 122.928 68.5816C122.711 69.3183 123.883 69.6216 124.057 68.8849C124.187 68.3649 124.317 67.8449 124.491 67.3249C124.708 66.5882 123.579 66.2849 123.362 67.0215Z" fill="#771212"/>
<path d="M120.887 71.6586C121.712 71.6586 121.712 70.3585 120.887 70.3585C120.062 70.3585 120.062 71.6586 120.887 71.6586Z" fill="#771212"/>
<path d="M119.714 104.723L128.529 115.34C131.178 118.546 131.091 123.226 128.269 126.303C124.1 130.897 117.847 139.044 111.377 152.087C110.161 153.691 96.1359 144.764 94.9635 143.117L77.1167 108.926L91.7936 99.9992C100.956 94.409 112.854 96.4457 119.714 104.723Z" fill="#E4002B"/>
<path d="M181.896 132.717L135.173 127.994C130.483 127.517 125.967 120.28 126.619 114.213L131.612 60.9119L135.434 27.3276C135.738 24.5542 138.256 22.5175 141.079 22.8208L197.658 28.541C199.265 28.7143 200.698 29.6244 201.567 31.0111C203.303 33.9578 203.39 35.4312 202.956 39.9813L200.828 61.0852L194.966 119.024C194.098 126.26 187.411 133.237 181.896 132.717Z" fill="#D06060"/>
<path d="M194.598 33.849C196.041 33.9788 197.314 34.844 198.036 36.0985C199.564 38.7372 199.648 40.1215 199.266 44.1878L197.356 63.2646L192.178 115.564C191.542 122.053 185.642 128.368 180.761 127.849L139.504 123.567C135.387 123.134 131.397 116.602 131.949 111.152L136.321 63.0484L139.716 32.7676C140.014 30.2586 142.221 28.4418 144.682 28.7013L194.598 33.849Z" fill="white"/>
<path d="M154.583 73.9118C154.626 73.5218 154.322 73.1751 153.932 73.1318L138.69 72.1784C138.299 72.1351 137.952 72.4385 137.909 72.8285C137.865 73.2185 138.169 73.5652 138.56 73.6085L153.801 74.5618C154.236 74.6052 154.583 74.3018 154.583 73.9118Z" fill="#FF9595"/>
<path d="M153.932 71.1385C153.584 71.1385 153.193 71.2252 152.89 71.3986C152.586 71.5286 152.238 71.6152 151.891 71.6586C151.587 71.6152 151.326 71.4852 151.066 71.3552L150.762 71.2252L150.458 71.0952C150.197 70.9652 149.937 70.8352 149.676 70.7919C149.416 70.7919 149.155 70.8785 148.938 70.9652L148.634 71.0519L148.46 71.0952C148.156 71.2252 147.852 71.3119 147.549 71.3119C147.201 71.2685 146.897 71.1385 146.637 70.9652C146.333 70.7919 146.029 70.6619 145.638 70.5752C145.334 70.6185 145.073 70.7052 144.813 70.8352L144.769 70.8785C144.466 71.0085 144.162 71.0952 143.814 71.1385C143.467 71.0519 143.163 70.9652 142.902 70.7919C142.598 70.5752 142.251 70.4452 141.904 70.4019C141.643 70.4452 141.382 70.5319 141.165 70.6619C140.905 70.8352 140.601 70.9219 140.297 70.9219L140.253 70.9219C139.993 70.8352 139.689 70.7052 139.472 70.5319C139.255 70.3585 138.951 70.2285 138.647 70.1852C138.169 70.2718 137.692 70.4885 137.257 70.7052L137.474 71.0519C137.822 70.8352 138.256 70.6619 138.647 70.5752C138.864 70.6619 139.081 70.7485 139.255 70.8785C139.515 71.0952 139.863 71.2252 140.167 71.3119L140.21 71.3119C140.601 71.2685 140.948 71.1819 141.296 71.0085C141.469 70.9219 141.686 70.8352 141.904 70.7919C142.164 70.8785 142.425 70.9652 142.685 71.1385C143.033 71.3552 143.38 71.4852 143.771 71.5719C144.162 71.5286 144.552 71.4419 144.9 71.3119L144.943 71.3119C145.16 71.2252 145.421 71.1385 145.638 71.0952C145.898 71.1819 146.159 71.2685 146.42 71.3986C146.767 71.6152 147.114 71.7452 147.505 71.8319C147.896 71.8319 148.243 71.7452 148.591 71.6152L148.764 71.5719L149.068 71.4419C149.242 71.3552 149.459 71.3119 149.676 71.2685C149.893 71.3119 150.11 71.3986 150.284 71.5286L150.588 71.7019L150.849 71.8319C151.153 72.0052 151.5 72.1352 151.847 72.1786C152.238 72.1786 152.672 72.0486 153.02 71.9186C153.28 71.7886 153.584 71.7452 153.888 71.7019C154.409 71.8752 154.887 72.0919 155.365 72.3519L155.582 72.0052C155.061 71.5719 154.496 71.3552 153.932 71.1385Z" fill="#FF9595"/>
<path d="M153.107 70.1417C153.802 70.185 154.366 69.665 154.409 68.9716C154.409 68.625 154.323 68.3216 154.105 68.0616C152.629 66.4582 150.024 65.2882 146.984 65.1149C143.554 64.8982 140.514 66.0249 138.951 67.7583C138.603 68.1483 138.647 68.7116 139.038 69.0583C139.211 69.1883 139.385 69.275 139.602 69.275L153.107 70.1417Z" fill="#FF9595"/>
<path d="M139.515 75.1253C138.821 75.082 138.256 75.602 138.213 76.252C138.213 76.5987 138.299 76.902 138.517 77.1621C139.993 78.7654 142.598 79.9355 145.638 80.1088C149.068 80.3255 152.108 79.1988 153.671 77.4654C154.019 77.0754 153.975 76.512 153.584 76.1654C153.411 76.0354 153.237 75.9487 153.02 75.9487L139.515 75.1253Z" fill="#FF9595"/>
<path d="M151.674 52.1146C151.37 51.4213 151.674 50.5979 152.369 50.2946C152.629 50.1646 152.933 50.1212 153.237 50.0779L153.584 41.281C148.851 41.411 144.335 43.3611 141.079 46.7845L152.021 56.2748C152.282 56.4914 152.629 56.4481 152.846 56.2314C152.933 56.1447 152.976 56.0147 152.976 55.8847L153.107 52.938C152.586 52.808 151.891 52.548 151.674 52.1146ZM148.33 50.0779L148.07 50.2079C147.462 50.4679 146.724 50.2079 146.463 49.6012L146.333 49.3412C146.072 48.7345 146.333 47.9979 146.984 47.7379L147.245 47.6078C147.853 47.3478 148.591 47.6078 148.851 48.2579L148.982 48.5179C149.242 49.0812 148.982 49.8179 148.33 50.0779Z" fill="#FF9595"/>
<path d="M188.974 52.8081L188.931 52.8081L184.371 52.3314C184.067 52.2881 183.807 52.0281 183.85 51.6814C183.894 51.378 184.154 51.118 184.502 51.1614L189.061 51.638C189.365 51.6814 189.625 51.9414 189.582 52.2881C189.495 52.5914 189.278 52.8081 188.974 52.8081Z" fill="#FF9595"/>
<path d="M186.455 54.8446L186.412 54.8446C186.108 54.8013 185.848 54.5413 185.891 54.1946L186.369 49.6445C186.412 49.3412 186.673 49.0812 187.02 49.1245C187.324 49.1678 187.584 49.4278 187.541 49.7745L187.02 54.3246C187.02 54.628 186.759 54.8446 186.455 54.8446Z" fill="#FF9595"/>
<path d="M179.378 53.4147C179.291 53.4147 179.247 53.4147 179.161 53.4147L164.527 51.898C163.311 51.768 162.443 50.6846 162.573 49.5146C162.703 48.3012 163.789 47.4345 164.961 47.5645L179.595 49.0812C180.811 49.2113 181.679 50.2946 181.549 51.4646C181.462 52.5913 180.507 53.4147 179.378 53.4147Z" fill="#FF9595"/>
<path d="M186.846 77.2921L186.803 77.2921L182.243 76.8154C181.939 76.7721 181.679 76.5121 181.722 76.1654C181.766 75.862 182.026 75.602 182.374 75.6454L186.933 76.1221C187.237 76.1654 187.498 76.4254 187.454 76.7721C187.367 77.0754 187.15 77.2921 186.846 77.2921Z" fill="#FF9595"/>
<path d="M184.328 79.3287L184.284 79.3287C183.98 79.2853 183.72 79.0253 183.763 78.6787L184.241 74.1285C184.284 73.8252 184.545 73.5652 184.892 73.6085C185.196 73.6518 185.457 73.9118 185.413 74.2585L184.936 78.8087C184.892 79.112 184.632 79.3287 184.328 79.3287Z" fill="#FF9595"/>
<path d="M177.25 77.8987C177.163 77.8987 177.12 77.8987 177.033 77.8987L162.399 76.382C161.183 76.252 160.315 75.1686 160.445 73.9986C160.576 72.7852 161.661 71.9185 162.834 72.0485L177.467 73.5653C178.683 73.6953 179.551 74.7786 179.421 75.9487C179.334 77.032 178.379 77.8987 177.25 77.8987Z" fill="#FF9595"/>
<path d="M148.398 101.514C149.022 99.7543 148.54 97.978 147.319 97.5462C146.099 97.1144 144.602 98.1907 143.978 99.9501C143.353 101.71 143.835 103.486 145.056 103.918C146.276 104.349 147.773 103.273 148.398 101.514Z" fill="#FF9595"/>
<path d="M156.494 167.688C156.494 166.518 156.016 165.565 155.321 164.915C154.974 163.701 154.019 162.618 152.369 162.358C128.399 158.198 104.473 154.081 80.5038 149.921C79.4182 147.884 78.0287 145.284 77.6813 144.547C76.9431 143.031 76.5523 141.384 75.9444 139.867C74.9022 137.267 73.9035 134.667 72.9482 132.024C71.1679 126.953 69.6481 121.753 68.3888 116.51C68.1283 115.383 67.1296 114.56 65.9137 114.776C60.1819 115.773 54.537 117.16 48.9788 118.98C47.8933 119.327 47.5459 120.237 47.763 121.103C47.763 121.32 47.8498 121.58 47.9367 121.797C51.2802 130.247 57.7068 136.964 63.6123 143.681C64.4808 144.677 65.3927 145.717 66.2611 146.714C56.0568 143.507 45.6787 141.037 35.127 139.304C34.0848 139.13 33.3901 139.65 33.0861 140.344C32.7387 140.864 32.6084 141.557 32.9558 142.337C36.7336 150.354 40.5114 158.328 44.3326 166.345C44.9405 167.645 46.5037 167.948 47.6327 167.125C55.2751 161.491 63.5689 156.941 72.3837 153.474C72.6877 154.861 73.643 156.074 75.4233 156.421C94.7465 159.758 96.3097 160.104 115.633 163.441C115.85 186.278 116.29 208.769 113.511 231.433C113.207 233.773 134.652 231.91 136.91 231.52C138.3 231.303 140.036 231.693 141.426 231.78C143.423 231.91 145.421 232.04 147.418 232.213C150.111 232.386 152.021 232.343 154.54 231.433C155.712 231 156.537 229.7 156.667 228.486C158.752 205.822 156.667 190.352 156.494 167.688Z" fill="white"/>
<path d="M101.217 68.2783C101.26 68.365 107.035 67.0216 107.035 67.0216L103.865 58.5714L99.9573 60.1748C99.9573 60.1748 97.2651 61.6048 101.217 68.2783Z" fill="#771212"/>
<path d="M144.9 93.5424L155.799 71.6585C156.841 69.5784 159.403 68.7117 161.487 69.7517C163.572 70.7918 164.44 73.3485 163.398 75.4286L152.499 97.3125C151.457 99.3926 148.895 100.259 146.81 99.2192C144.683 98.1792 143.858 95.6225 144.9 93.5424Z" fill="#D06060"/>
<path d="M122.494 113.26C121.842 111.743 143.293 116.293 148.374 103.769C148.895 102.513 148.851 101.083 148.33 99.7825C147.201 97.1391 145.291 91.7223 146.376 88.1255C147.896 83.2287 149.416 80.5853 150.936 82.8387C150.936 82.8387 153.194 91.159 156.971 88.1255L160.358 80.5853C160.358 80.5853 167.567 86.3922 165.786 96.8358C165.699 97.3558 165.699 97.9191 165.786 98.4392C166.915 104.549 166.872 111.136 162.964 121.363C153.671 145.717 135.911 154.904 115.459 146.584C115.546 146.627 132.047 135.794 122.494 113.26Z" fill="#C599C6"/>
<path fill-rule="evenodd" clip-rule="evenodd" d="M107.551 102.276C107.758 102.054 108.105 102.042 108.327 102.249C111.505 105.215 115.103 107.849 117.914 109.745C119.317 110.692 120.522 111.452 121.374 111.976C121.801 112.237 122.139 112.44 122.37 112.576C122.485 112.645 122.574 112.697 122.634 112.731L122.701 112.77L122.718 112.78L122.723 112.783C122.986 112.933 123.078 113.269 122.927 113.532C122.776 113.796 122.441 113.887 122.178 113.736L122.45 113.26C122.178 113.736 122.178 113.737 122.178 113.736L122.176 113.735L122.171 113.733L122.153 113.722L122.082 113.681C122.02 113.645 121.929 113.592 121.811 113.522C121.575 113.383 121.231 113.177 120.799 112.912C119.936 112.382 118.718 111.613 117.299 110.656C114.464 108.743 110.814 106.073 107.578 103.053C107.356 102.846 107.344 102.498 107.551 102.276ZM80.2182 105.391C80.5192 105.353 80.7939 105.567 80.8317 105.868C83.3786 126.137 91.0516 137.551 98.036 143.897C101.533 147.074 104.868 148.99 107.322 150.111C108.549 150.671 109.555 151.033 110.251 151.253C110.599 151.363 110.869 151.438 111.051 151.485C111.141 151.509 111.21 151.525 111.254 151.536C111.277 151.541 111.293 151.545 111.303 151.547L111.314 151.549L111.316 151.55C111.316 151.55 111.316 151.55 111.316 151.55C111.612 151.612 111.803 151.903 111.741 152.199C111.68 152.496 111.389 152.687 111.092 152.625L111.193 152.139C111.092 152.625 111.091 152.625 111.091 152.625L111.089 152.625L111.084 152.623L111.067 152.62C111.052 152.617 111.031 152.612 111.005 152.606C110.952 152.593 110.874 152.575 110.775 152.549C110.576 152.497 110.287 152.417 109.92 152.3C109.185 152.068 108.136 151.691 106.865 151.11C104.323 149.949 100.889 147.974 97.2973 144.71C90.1041 138.175 82.3186 126.513 79.7416 106.005C79.7038 105.704 79.9172 105.429 80.2182 105.391Z" fill="#681A23"/>
<path d="M99.1322 63.2949L123.579 58.8315C124.535 58.6582 125.142 57.7481 124.969 56.7948C124.969 56.7514 124.925 56.6648 124.925 56.6214L123.536 51.638C123.058 50.2946 121.799 48.1712 120.54 47.4778C118.803 46.4811 116.154 45.3545 113.462 45.6145C108.816 46.0478 100.956 47.7379 97.8296 51.898C96.3966 53.848 99.1322 63.2949 99.1322 63.2949Z" fill="#FF9595"/>
<path d="M100.435 58.8748L90.7516 67.325C90.6647 67.3683 90.6213 67.455 90.5779 67.5417L87.7554 76.4686C87.6686 76.7286 87.7988 77.0319 88.1028 77.1619C88.2765 77.2053 88.4502 77.2053 88.6239 77.0753L100.348 67.2817C100.435 67.195 100.522 67.065 100.522 66.935L101.347 59.3081C101.39 59.0048 101.173 58.7448 100.869 58.7014C100.695 58.7448 100.565 58.7881 100.435 58.8748Z" fill="#FF9595"/>
<path d="M103.127 60.6083C103.127 60.6083 89.9265 55.1481 87.104 53.6747C84.9763 52.5914 78.2458 58.1382 74.9456 60.9983C74.5982 61.3016 74.5548 61.865 74.8588 62.2116C75.0325 62.4283 75.293 62.515 75.5535 62.515L103.127 60.6083Z" fill="#FF9595"/>
<path d="M105.472 56.2747C107.513 55.668 109.988 57.1414 110.943 59.6548C111.942 62.1248 111.03 64.6382 108.989 65.2449C106.948 65.8516 104.473 64.3782 103.518 61.8648C102.563 59.3948 103.431 56.9247 105.472 56.2747Z" fill="#C599C6"/>
<path d="M67.988 154.201C61.287 168.27 53.7182 181.936 45.1852 194.996C42.823 198.627 49.1866 201.703 51.5006 198.123C59.9854 185.012 67.6024 171.397 74.3034 157.328C76.1835 153.445 69.8682 150.318 67.988 154.201Z" fill="white"/>
<path d="M66.614 157.597C66.3462 178.345 64.9534 199.093 62.4357 219.708C61.7393 225.427 69.5067 225.36 70.2031 219.641C72.7207 199.027 74.1135 178.279 74.3813 157.531C74.4349 151.745 66.6676 151.812 66.614 157.597Z" fill="white"/>
<path d="M-279.432 -6.99751L-257.572 -6.99751V-2.39949L-274.719 -2.39949V4.9765L-265.082 4.9765V9.55536L-274.719 9.55536V21.6443H-279.432V-6.99751Z" fill="#3E3E3E"/>
<path d="M-243.031 8.88482V21.6443H-247.418V20.1883C-248.708 21.4527 -250.439 22.085 -252.61 22.085C-253.951 22.085 -255.139 21.8295 -256.174 21.3186C-257.208 20.795 -258.013 20.0733 -258.588 19.1537C-259.15 18.2214 -259.431 17.1676 -259.431 15.9926C-259.431 14.1406 -258.824 12.7101 -257.61 11.7011C-256.397 10.6921 -254.73 10.0982 -252.61 9.91937L-247.418 9.45957V8.88482C-247.418 8.31007 -247.578 7.7864 -247.897 7.31383C-248.216 6.84125 -248.657 6.47086 -249.219 6.20264C-249.768 5.93442 -250.388 5.80031 -251.077 5.80031C-251.984 5.80031 -252.77 6.03021 -253.434 6.49002C-254.085 6.94982 -254.481 7.54373 -254.622 8.27175H-258.952C-258.862 6.98175 -258.473 5.81947 -257.783 4.78492C-257.093 3.73759 -256.167 2.92017 -255.005 2.33264C-253.83 1.73234 -252.521 1.43219 -251.077 1.43219C-249.506 1.43219 -248.114 1.7515 -246.901 2.39012C-245.675 3.02873 -244.723 3.9164 -244.046 5.05313C-243.369 6.1771 -243.031 7.45432 -243.031 8.88482ZM-247.418 14.7473V13.0039L-251.978 13.4062C-253.97 13.585 -254.967 14.4088 -254.967 15.8776C-254.967 16.5546 -254.686 17.1166 -254.124 17.5636C-253.562 18.0106 -252.77 18.2341 -251.748 18.2341C-250.892 18.2341 -250.139 18.0872 -249.487 17.7935C-248.823 17.4869 -248.312 17.0718 -247.955 16.5482C-247.597 16.0245 -247.418 15.4242 -247.418 14.7473Z" fill="#3E3E3E"/>
<path d="M-238.548 21.6443V17.5636L-226.9 6.10685L-238.548 6.10685V1.87284L-220.577 1.87284V5.95358L-232.226 17.4103L-220.577 17.4103V21.6443L-238.548 21.6443Z" fill="#3E3E3E"/>
<path d="M-197.817 13.6744L-212.627 13.6744C-212.294 14.9006 -211.637 15.8904 -210.653 16.644C-209.657 17.3848 -208.469 17.7552 -207.09 17.7552C-206.017 17.7552 -205.065 17.5189 -204.235 17.0463C-203.392 16.561 -202.715 15.9032 -202.204 15.073L-198.488 17.4103C-199.382 18.8536 -200.576 19.9967 -202.07 20.8397C-203.565 21.6699 -205.238 22.085 -207.09 22.085C-209.044 22.085 -210.8 21.6315 -212.358 20.7247C-213.904 19.8179 -215.117 18.579 -215.998 17.008C-216.88 15.437 -217.32 13.7 -217.32 11.7969C-217.32 9.85551 -216.899 8.09932 -216.056 6.52833C-215.213 4.94457 -214.044 3.69927 -212.55 2.79244C-211.043 1.88561 -209.338 1.43219 -207.435 1.43219C-205.532 1.43219 -203.839 1.87922 -202.358 2.77328C-200.863 3.66734 -199.701 4.89987 -198.871 6.47086C-198.041 8.04185 -197.625 9.79165 -197.625 11.7203C-197.625 12.3206 -197.689 12.9719 -197.817 13.6744ZM-212.703 9.88106L-202.185 9.88106C-202.453 8.59105 -203.054 7.58205 -203.986 6.85403C-204.906 6.12601 -206.042 5.762 -207.396 5.762C-208.788 5.762 -209.957 6.12601 -210.902 6.85403C-211.835 7.58205 -212.435 8.59105 -212.703 9.88106Z" fill="#3E3E3E"/>
<path d="M-181.686 1.87284V6.26011H-184.483C-185.339 6.26011 -186.105 6.46447 -186.782 6.87318C-187.446 7.26912 -187.97 7.81833 -188.353 8.52081C-188.723 9.21051 -188.908 9.97685 -188.908 10.8198V21.6443H-193.391V1.87284L-188.985 1.87284V4.09521C-188.449 3.36719 -187.746 2.81799 -186.878 2.44759C-185.996 2.06442 -185.038 1.87284 -184.004 1.87284H-181.686Z" fill="#3E3E3E"/>
<path d="M-146.434 11.7969C-146.434 13.6872 -146.856 15.4178 -147.699 16.9888C-148.542 18.5598 -149.717 19.8051 -151.224 20.7247C-152.718 21.6315 -154.404 22.085 -156.282 22.085C-157.444 22.085 -158.536 21.8998 -159.558 21.5294C-160.567 21.1462 -161.461 20.6098 -162.24 19.9201V29.9591H-166.723V1.87284H-162.278V3.63541C-161.512 2.93294 -160.618 2.39012 -159.596 2.00695C-158.561 1.62378 -157.457 1.43219 -156.282 1.43219C-154.391 1.43219 -152.699 1.88561 -151.205 2.79244C-149.71 3.69927 -148.542 4.94457 -147.699 6.52833C-146.856 8.11209 -146.434 9.86828 -146.434 11.7969ZM-150.898 11.7969C-150.898 10.6602 -151.141 9.63838 -151.626 8.73155C-152.111 7.81195 -152.788 7.0967 -153.657 6.58581C-154.525 6.06215 -155.515 5.80031 -156.626 5.80031C-157.75 5.80031 -158.753 6.06215 -159.634 6.58581C-160.503 7.0967 -161.18 7.81195 -161.665 8.73155C-162.15 9.63838 -162.393 10.6602 -162.393 11.7969C-162.393 12.9081 -162.15 13.9171 -161.665 14.8239C-161.18 15.718 -160.496 16.4268 -159.615 16.9505C-158.734 17.4614 -157.738 17.7168 -156.626 17.7168C-155.528 17.7168 -154.545 17.4614 -153.676 16.9505C-152.795 16.4268 -152.111 15.718 -151.626 14.8239C-151.141 13.9171 -150.898 12.9081 -150.898 11.7969Z" fill="#3E3E3E"/>
<path d="M-126.931 8.88482V21.6443H-131.318V20.1883C-132.608 21.4527 -134.339 22.085 -136.51 22.085C-137.851 22.085 -139.039 21.8295 -140.074 21.3186C-141.108 20.795 -141.913 20.0733 -142.488 19.1537C-143.05 18.2214 -143.331 17.1676 -143.331 15.9926C-143.331 14.1406 -142.724 12.7101 -141.51 11.7011C-140.297 10.6921 -138.63 10.0982 -136.51 9.91937L-131.318 9.45957V8.88482C-131.318 8.31007 -131.478 7.7864 -131.797 7.31383C-132.116 6.84125 -132.557 6.47086 -133.119 6.20264C-133.668 5.93442 -134.288 5.80031 -134.977 5.80031C-135.884 5.80031 -136.67 6.03021 -137.334 6.49002C-137.985 6.94982 -138.381 7.54373 -138.522 8.27175L-142.852 8.27175C-142.762 6.98175 -142.373 5.81947 -141.683 4.78492C-140.993 3.73759 -140.067 2.92017 -138.905 2.33264C-137.73 1.73234 -136.421 1.43219 -134.977 1.43219C-133.406 1.43219 -132.014 1.7515 -130.801 2.39012C-129.575 3.02873 -128.623 3.9164 -127.946 5.05313C-127.269 6.1771 -126.931 7.45432 -126.931 8.88482ZM-131.318 14.7473V13.0039L-135.878 13.4062C-137.87 13.585 -138.867 14.4088 -138.867 15.8776C-138.867 16.5546 -138.586 17.1166 -138.024 17.5636C-137.462 18.0106 -136.67 18.2341 -135.648 18.2341C-134.792 18.2341 -134.039 18.0872 -133.387 17.7935C-132.723 17.4869 -132.212 17.0718 -131.855 16.5482C-131.497 16.0245 -131.318 15.4242 -131.318 14.7473Z" fill="#3E3E3E"/>
<path d="M-109.765 1.87284V6.26011H-112.562C-113.418 6.26011 -114.184 6.46447 -114.861 6.87318C-115.525 7.26912 -116.049 7.81833 -116.432 8.52081C-116.803 9.21051 -116.988 9.97685 -116.988 10.8198V21.6443L-121.471 21.6443V1.87284H-117.064V4.09521C-116.528 3.36719 -115.825 2.81799 -114.957 2.44759C-114.076 2.06442 -113.118 1.87284 -112.083 1.87284H-109.765Z" fill="#3E3E3E"/>
<path d="M-100.492 1.87284L-94.0551 1.87284V6.10685L-100.492 6.10685V14.7473C-100.492 15.5519 -100.256 16.1969 -99.7834 16.6823C-99.3109 17.1676 -98.6723 17.4103 -97.8676 17.4103H-94.0551V21.6443H-98.8064C-100.02 21.6443 -101.093 21.3953 -102.025 20.8971C-102.957 20.3863 -103.685 19.671 -104.209 18.7514C-104.72 17.8318 -104.975 16.7717 -104.975 15.5711V6.10685L-107.715 6.10685V3.78868L-102.964 -2.09295L-100.492 -2.09295V1.87284Z" fill="#3E3E3E"/>
<path d="M-71.9463 13.6744L-86.7557 13.6744C-86.4236 14.9006 -85.7659 15.8904 -84.7824 16.644C-83.7862 17.3848 -82.5984 17.7552 -81.2189 17.7552C-80.1461 17.7552 -79.1945 17.5189 -78.3643 17.0463C-77.5214 16.561 -76.8444 15.9032 -76.3336 15.073L-72.6168 17.4103C-73.5109 18.8536 -74.7051 19.9967 -76.1994 20.8397C-77.6938 21.6699 -79.367 22.085 -81.2189 22.085C-83.1731 22.085 -84.9293 21.6315 -86.4875 20.7247C-88.033 19.8179 -89.2463 18.579 -90.1276 17.008C-91.0089 15.437 -91.4495 13.7 -91.4495 11.7969C-91.4495 9.85551 -91.0281 8.09932 -90.1851 6.52833C-89.3421 4.94457 -88.1734 3.69927 -86.6791 2.79244C-85.172 1.88561 -83.4669 1.43219 -81.5638 1.43219C-79.6607 1.43219 -77.9684 1.87922 -76.4868 2.77328C-74.9925 3.66734 -73.8302 4.89987 -73 6.47086C-72.1698 8.04185 -71.7547 9.79165 -71.7547 11.7203C-71.7547 12.3206 -71.8186 12.9719 -71.9463 13.6744ZM-86.8324 9.88106L-76.3144 9.88106C-76.5826 8.59105 -77.1829 7.58205 -78.1153 6.85403C-79.0349 6.12601 -80.1716 5.762 -81.5255 5.762C-82.9177 5.762 -84.0863 6.12601 -85.0315 6.85403C-85.9639 7.58205 -86.5641 8.59105 -86.8324 9.88106Z" fill="#3E3E3E"/>
<path d="M-37.2121 -8.26196V21.6443H-41.6568V19.8817C-42.4232 20.5842 -43.3236 21.127 -44.3582 21.5102C-45.3799 21.8934 -46.4784 22.085 -47.6534 22.085C-49.5309 22.085 -51.2233 21.6315 -52.7304 20.7247C-54.2247 19.8051 -55.3934 18.5598 -56.2364 16.9888C-57.0793 15.4178 -57.5008 13.6872 -57.5008 11.7969C-57.5008 9.86828 -57.0793 8.11209 -56.2364 6.52833C-55.3934 4.94457 -54.2247 3.69927 -52.7304 2.79244C-51.236 1.88561 -49.5437 1.43219 -47.6534 1.43219C-46.4784 1.43219 -45.3863 1.62378 -44.3773 2.00695C-43.3555 2.37734 -42.4615 2.90739 -41.6951 3.5971V-8.26196H-37.2121ZM-41.5419 11.7969C-41.5419 10.6602 -41.7845 9.63838 -42.2699 8.73155C-42.7552 7.81195 -43.4386 7.0967 -44.3198 6.58581C-45.1884 6.06215 -46.1846 5.80031 -47.3086 5.80031C-48.4197 5.80031 -49.4096 6.06215 -50.2781 6.58581C-51.1466 7.0967 -51.8236 7.81195 -52.3089 8.73155C-52.7943 9.63838 -53.0369 10.6602 -53.0369 11.7969C-53.0369 12.9081 -52.7943 13.9171 -52.3089 14.8239C-51.8236 15.718 -51.1466 16.4268 -50.2781 16.9505C-49.3968 17.4614 -48.407 17.7168 -47.3086 17.7168C-46.1974 17.7168 -45.2011 17.4614 -44.3198 16.9505C-43.4386 16.4268 -42.7552 15.718 -42.2699 14.8239C-41.7845 13.9171 -41.5419 12.9081 -41.5419 11.7969Z" fill="#3E3E3E"/>
<path d="M-22.6708 1.43219C-20.7167 1.43219 -18.9541 1.892 -17.3831 2.8116C-15.7993 3.71843 -14.5668 4.96373 -13.6855 6.54749C-12.7915 8.11848 -12.3445 9.86828 -12.3445 11.7969C-12.3445 13.6744 -12.7915 15.3987 -13.6855 16.9697C-14.5796 18.5407 -15.8121 19.786 -17.3831 20.7056C-18.9541 21.6252 -20.7167 22.085 -22.6708 22.085C-24.6122 22.085 -26.3684 21.6252 -27.9394 20.7056C-29.5104 19.786 -30.7429 18.5407 -31.637 16.9697C-32.531 15.3987 -32.9781 13.6744 -32.9781 11.7969C-32.9781 9.86828 -32.5374 8.11848 -31.6561 6.54749C-30.7621 4.96373 -29.5296 3.71843 -27.9586 2.8116C-26.3876 1.892 -24.625 1.43219 -22.6708 1.43219ZM-22.6708 17.6785C-21.5341 17.6785 -20.5251 17.4231 -19.6438 16.9122C-18.7498 16.4013 -18.0536 15.6988 -17.5555 14.8048C-17.0574 13.9107 -16.8083 12.9081 -16.8083 11.7969C-16.8083 10.6602 -17.0574 9.63838 -17.5555 8.73155C-18.0536 7.82472 -18.7498 7.11586 -19.6438 6.60497C-20.5251 6.09408 -21.5341 5.83863 -22.6708 5.83863C-23.8076 5.83863 -24.823 6.09408 -25.717 6.60497C-26.5983 7.11586 -27.288 7.82472 -27.7861 8.73155C-28.2715 9.63838 -28.5142 10.6602 -28.5142 11.7969C-28.5142 12.9081 -28.2651 13.9107 -27.767 14.8048C-27.2689 15.6988 -26.5791 16.4013 -25.6979 16.9122C-24.8166 17.4231 -23.8076 17.6785 -22.6708 17.6785Z" fill="#3E3E3E"/>
<path d="M7.73355 21.6443L3.25049 21.6443V1.87284H7.73355V21.6443ZM5.49203 -7.74469C6.05402 -7.74469 6.5585 -7.61058 7.00555 -7.34236C7.45258 -7.08691 7.8038 -6.73568 8.05927 -6.28865C8.3147 -5.84162 8.44241 -5.3435 8.44241 -4.79429C8.44241 -4.24508 8.3147 -3.74696 8.05927 -3.29993C7.8038 -2.8529 7.45258 -2.50167 7.00555 -2.24622C6.5585 -1.99078 6.05402 -1.86305 5.49203 -1.86305C4.93005 -1.86305 4.42554 -1.99078 3.97852 -2.24622C3.53149 -2.50167 3.18024 -2.8529 2.9248 -3.29993C2.66934 -3.74696 2.54163 -4.24508 2.54163 -4.79429C2.54163 -5.3435 2.66934 -5.84162 2.9248 -6.28865C3.18024 -6.73568 3.53149 -7.08691 3.97852 -7.34236C4.42554 -7.61058 4.93005 -7.74469 5.49203 -7.74469Z" fill="#3E3E3E"/>
<path d="M13.6152 -6.99751L35.4749 -6.99751V-2.39949L18.3282 -2.39949V4.9765L27.9648 4.9765V9.55536L18.3282 9.55536V21.6443H13.6152V-6.99751Z" fill="#3E3E3E"/>
<path d="M43.7322 1.43219C45.6864 1.43219 47.4489 1.892 49.02 2.8116C50.6037 3.71843 51.8362 4.96373 52.7175 6.54749C53.6116 8.11848 54.0586 9.86828 54.0586 11.7969C54.0586 13.6744 53.6116 15.3987 52.7175 16.9697C51.8235 18.5407 50.5909 19.786 49.02 20.7056C47.4489 21.6252 45.6864 22.085 43.7322 22.085C41.7908 22.085 40.0346 21.6252 38.4637 20.7056C36.8927 19.786 35.6602 18.5407 34.7661 16.9697C33.872 15.3987 33.425 13.6744 33.425 11.7969C33.425 9.86828 33.8656 8.11848 34.7469 6.54749C35.641 4.96373 36.8735 3.71843 38.4445 2.8116C40.0155 1.892 41.7781 1.43219 43.7322 1.43219ZM43.7322 17.6785C44.869 17.6785 45.878 17.4231 46.7592 16.9122C47.6533 16.4013 48.3494 15.6988 48.8475 14.8048C49.3456 13.9107 49.5947 12.9081 49.5947 11.7969C49.5947 10.6602 49.3456 9.63838 48.8475 8.73155C48.3494 7.82472 47.6533 7.11586 46.7592 6.60497C45.878 6.09408 44.869 5.83863 43.7322 5.83863C42.5955 5.83863 41.5801 6.09408 40.686 6.60497C39.8047 7.11586 39.1151 7.82472 38.6169 8.73155C38.1316 9.63838 37.8889 10.6602 37.8889 11.7969C37.8889 12.9081 38.138 13.9107 38.6361 14.8048C39.1342 15.6988 39.8239 16.4013 40.7052 16.9122C41.5865 17.4231 42.5955 17.6785 43.7322 17.6785Z" fill="#3E3E3E"/>
<path d="M67.3737 1.43219C69.3279 1.43219 71.0904 1.892 72.6614 2.8116C74.2452 3.71843 75.4777 4.96373 76.359 6.54749C77.2531 8.11848 77.7001 9.86828 77.7001 11.7969C77.7001 13.6744 77.2531 15.3987 76.359 16.9697C75.4649 18.5407 74.2324 19.786 72.6614 20.7056C71.0904 21.6252 69.3279 22.085 67.3737 22.085C65.4323 22.085 63.6761 21.6252 62.1051 20.7056C60.5341 19.786 59.3016 18.5407 58.4076 16.9697C57.5135 15.3987 57.0665 13.6744 57.0665 11.7969C57.0665 9.86828 57.5071 8.11848 58.3884 6.54749C59.2825 4.96373 60.515 3.71843 62.086 2.8116C63.657 1.892 65.4196 1.43219 67.3737 1.43219ZM67.3737 17.6785C68.5104 17.6785 69.5194 17.4231 70.4007 16.9122C71.2948 16.4013 71.9909 15.6988 72.489 14.8048C72.9871 13.9107 73.2362 12.9081 73.2362 11.7969C73.2362 10.6602 72.9871 9.63838 72.489 8.73155C71.9909 7.82472 71.2948 7.11586 70.4007 6.60497C69.5194 6.09408 68.5104 5.83863 67.3737 5.83863C66.237 5.83863 65.2216 6.09408 64.3275 6.60497C63.4462 7.11586 62.7565 7.82472 62.2584 8.73155C61.7731 9.63838 61.5304 10.6602 61.5304 11.7969C61.5304 12.9081 61.7794 13.9107 62.2776 14.8048C62.7757 15.6988 63.4654 16.4013 64.3467 16.9122C65.228 17.4231 66.237 17.6785 67.3737 17.6785Z" fill="#3E3E3E"/>
<path d="M100.997 -8.26196V21.6443H96.552V19.8817C95.7856 20.5842 94.8852 21.127 93.8506 21.5102C92.8289 21.8934 91.7304 22.085 90.5554 22.085C88.6779 22.085 86.9855 21.6315 85.4784 20.7247C83.984 19.8051 82.8154 18.5598 81.9724 16.9888C81.1295 15.4178 80.7079 13.6872 80.7079 11.7969C80.7079 9.86828 81.1295 8.11209 81.9724 6.52833C82.8154 4.94457 83.984 3.69927 85.4784 2.79244C86.9727 1.88561 88.6651 1.43219 90.5554 1.43219C91.7304 1.43219 92.8224 1.62378 93.8315 2.00695C94.8532 2.37734 95.7473 2.90739 96.5136 3.5971V-8.26196H100.997ZM96.6669 11.7969C96.6669 10.6602 96.4243 9.63838 95.9389 8.73155C95.4536 7.81195 94.7702 7.0967 93.8889 6.58581C93.0204 6.06215 92.0242 5.80031 90.9002 5.80031C89.789 5.80031 88.7992 6.06215 87.9307 6.58581C87.0622 7.0967 86.3852 7.81195 85.8999 8.73155C85.4146 9.63838 85.1719 10.6602 85.1719 11.7969C85.1719 12.9081 85.4146 13.9171 85.8999 14.8239C86.3852 15.718 87.0622 16.4268 87.9307 16.9505C88.812 17.4614 89.8018 17.7168 90.9002 17.7168C92.0114 17.7168 93.0077 17.4614 93.8889 16.9505C94.7702 16.4268 95.4536 15.718 95.9389 14.8239C96.4243 13.9171 96.6669 12.9081 96.6669 11.7969Z" fill="#3E3E3E"/>
<path d="M136.076 13.6744L121.266 13.6744C121.598 14.9006 122.256 15.8904 123.24 16.644C124.236 17.3848 125.424 17.7552 126.803 17.7552C127.876 17.7552 128.828 17.5189 129.658 17.0463C130.501 16.561 131.178 15.9032 131.689 15.073L135.405 17.4103C134.511 18.8536 133.317 19.9967 131.823 20.8397C130.328 21.6699 128.655 22.085 126.803 22.085C124.849 22.085 123.093 21.6315 121.535 20.7247C119.989 19.8179 118.776 18.579 117.894 17.008C117.013 15.437 116.573 13.7 116.573 11.7969C116.573 9.85551 116.994 8.09932 117.837 6.52833C118.68 4.94457 119.849 3.69927 121.343 2.79244C122.85 1.88561 124.555 1.43219 126.458 1.43219C128.361 1.43219 130.054 1.87922 131.535 2.77328C133.03 3.66734 134.192 4.89987 135.022 6.47086C135.852 8.04185 136.267 9.79165 136.267 11.7203C136.267 12.3206 136.203 12.9719 136.076 13.6744ZM121.19 9.88106H131.708C131.439 8.59105 130.839 7.58205 129.907 6.85403C128.987 6.12601 127.85 5.762 126.497 5.762C125.104 5.762 123.936 6.12601 122.991 6.85403C122.058 7.58205 121.458 8.59105 121.19 9.88106ZM127.397 -0.56028H124.37L126.228 -6.65266L131.823 -6.65266L127.397 -0.56028Z" fill="#3E3E3E"/>
<path d="M180.485 8.8465V21.6443H176.021V9.632C176.021 8.94229 175.861 8.30368 175.542 7.71615C175.223 7.12863 174.776 6.66244 174.201 6.31759C173.626 5.97274 172.962 5.80031 172.209 5.80031C171.481 5.80031 170.823 5.97274 170.235 6.31759C169.66 6.66244 169.213 7.12863 168.894 7.71615C168.575 8.30368 168.415 8.94229 168.415 9.632V21.6443H163.932V9.632C163.932 8.94229 163.772 8.30368 163.453 7.71615C163.147 7.12863 162.7 6.66244 162.112 6.31759C161.537 5.97274 160.88 5.80031 160.139 5.80031C159.398 5.80031 158.734 5.97274 158.146 6.31759C157.572 6.66244 157.124 7.12863 156.805 7.71615C156.486 8.30368 156.326 8.94229 156.326 9.632V21.6443L151.843 21.6443V1.87284H156.096V3.29056C156.735 2.69026 157.476 2.23046 158.319 1.91115C159.162 1.59185 160.081 1.43219 161.078 1.43219C162.24 1.43219 163.3 1.64932 164.258 2.08358C165.228 2.51784 166.046 3.13091 166.71 3.92279C167.425 3.13091 168.287 2.51784 169.296 2.08358C170.318 1.64932 171.436 1.43219 172.649 1.43219C174.156 1.43219 175.504 1.75789 176.692 2.40927C177.879 3.04789 178.805 3.93556 179.47 5.07229C180.147 6.19625 180.485 7.45432 180.485 8.8465Z" fill="#3E3E3E"/>
<path d="M203.264 1.87284V21.6443H198.82V20.0925C198.143 20.7311 197.357 21.2228 196.463 21.5677C195.569 21.9125 194.605 22.085 193.57 22.085C192.089 22.085 190.754 21.7529 189.566 21.0887C188.391 20.4246 187.471 19.505 186.807 18.3299C186.156 17.1549 185.83 15.8265 185.83 14.345V1.87284L190.313 1.87284V13.5212C190.313 14.2875 190.486 14.99 190.831 15.6286C191.175 16.2544 191.661 16.7525 192.287 17.1229C192.925 17.4933 193.666 17.6785 194.509 17.6785C195.352 17.6785 196.093 17.4933 196.731 17.1229C197.383 16.7398 197.887 16.2289 198.245 15.5903C198.602 14.9389 198.781 14.2236 198.781 13.4445V1.87284L203.264 1.87284Z" fill="#3E3E3E"/>
<path d="M213.303 21.6443H208.82V1.87284L213.303 1.87284V21.6443ZM211.062 -7.74469C211.624 -7.74469 212.128 -7.61058 212.575 -7.34236C213.022 -7.08691 213.374 -6.73568 213.629 -6.28865C213.884 -5.84162 214.012 -5.3435 214.012 -4.79429C214.012 -4.24508 213.884 -3.74696 213.629 -3.29993C213.374 -2.8529 213.022 -2.50167 212.575 -2.24622C212.128 -1.99078 211.624 -1.86305 211.062 -1.86305C210.5 -1.86305 209.995 -1.99078 209.548 -2.24622C209.101 -2.50167 208.75 -2.8529 208.495 -3.29993C208.239 -3.74696 208.111 -4.24508 208.111 -4.79429C208.111 -5.3435 208.239 -5.84162 208.495 -6.28865C208.75 -6.73568 209.101 -7.08691 209.548 -7.34236C209.995 -7.61058 210.5 -7.74469 211.062 -7.74469Z" fill="#3E3E3E"/>
<path d="M223.975 1.87284H230.412V6.10685H223.975V14.7473C223.975 15.5519 224.211 16.1969 224.683 16.6823C225.156 17.1676 225.795 17.4103 226.599 17.4103H230.412V21.6443H225.661C224.447 21.6443 223.374 21.3953 222.442 20.8971C221.51 20.3863 220.781 19.671 220.258 18.7514C219.747 17.8318 219.491 16.7717 219.491 15.5711V6.10685H216.752V3.78868L221.503 -2.09295H223.975V1.87284Z" fill="#3E3E3E"/>
<path d="M243.325 1.43219C245.279 1.43219 247.041 1.892 248.612 2.8116C250.196 3.71843 251.429 4.96373 252.31 6.54749C253.204 8.11848 253.651 9.86828 253.651 11.7969C253.651 13.6744 253.204 15.3987 252.31 16.9697C251.416 18.5407 250.183 19.786 248.612 20.7056C247.041 21.6252 245.279 22.085 243.325 22.085C241.383 22.085 239.627 21.6252 238.056 20.7056C236.485 19.786 235.253 18.5407 234.358 16.9697C233.464 15.3987 233.017 13.6744 233.017 11.7969C233.017 9.86828 233.458 8.11848 234.339 6.54749C235.233 4.96373 236.466 3.71843 238.037 2.8116C239.608 1.892 241.37 1.43219 243.325 1.43219ZM243.325 17.6785C244.461 17.6785 245.47 17.4231 246.352 16.9122C247.246 16.4013 247.942 15.6988 248.44 14.8048C248.938 13.9107 249.187 12.9081 249.187 11.7969C249.187 10.6602 248.938 9.63838 248.44 8.73155C247.942 7.82472 247.246 7.11586 246.352 6.60497C245.47 6.09408 244.461 5.83863 243.325 5.83863C242.188 5.83863 241.172 6.09408 240.278 6.60497C239.397 7.11586 238.707 7.82472 238.209 8.73155C237.724 9.63838 237.481 10.6602 237.481 11.7969C237.481 12.9081 237.73 13.9107 238.228 14.8048C238.727 15.6988 239.416 16.4013 240.298 16.9122C241.179 17.4231 242.188 17.6785 243.325 17.6785Z" fill="#3E3E3E"/>
<path d="M271.066 6.10685H267.023V1.87284H271.066V-2.57191C271.066 -3.70865 271.302 -4.70488 271.775 -5.56063C272.247 -6.42914 272.918 -7.0933 273.786 -7.5531C274.655 -8.02568 275.67 -8.26196 276.833 -8.26196H280.741V-4.00879H277.542C276.928 -4.00879 276.437 -3.8236 276.066 -3.4532C275.709 -3.09558 275.53 -2.60384 275.53 -1.978V1.87284H280.741V6.10685H275.53V21.6443H271.066V6.10685Z" fill="#3E3E3E"/>
<path d="M298.999 8.88482V21.6443H294.612V20.1883C293.322 21.4527 291.591 22.085 289.42 22.085C288.079 22.085 286.891 21.8295 285.856 21.3186C284.822 20.795 284.017 20.0733 283.442 19.1537C282.88 18.2214 282.599 17.1676 282.599 15.9926C282.599 14.1406 283.206 12.7101 284.419 11.7011C285.633 10.6921 287.299 10.0982 289.42 9.91937L294.612 9.45957V8.88482C294.612 8.31007 294.452 7.7864 294.133 7.31383C293.813 6.84125 293.373 6.47086 292.811 6.20264C292.262 5.93442 291.642 5.80031 290.952 5.80031C290.046 5.80031 289.26 6.03021 288.596 6.49002C287.945 6.94982 287.549 7.54373 287.408 8.27175H283.078C283.168 6.98175 283.557 5.81947 284.247 4.78492C284.937 3.73759 285.863 2.92017 287.025 2.33264C288.2 1.73234 289.509 1.43219 290.952 1.43219C292.523 1.43219 293.916 1.7515 295.129 2.39012C296.355 3.02873 297.307 3.9164 297.984 5.05313C298.66 6.1771 298.999 7.45432 298.999 8.88482ZM294.612 14.7473V13.0039L290.052 13.4062C288.059 13.585 287.063 14.4088 287.063 15.8776C287.063 16.5546 287.344 17.1166 287.906 17.5636C288.468 18.0106 289.26 18.2341 290.282 18.2341C291.138 18.2341 291.891 18.0872 292.543 17.7935C293.207 17.4869 293.718 17.0718 294.075 16.5482C294.433 16.0245 294.612 15.4242 294.612 14.7473ZM292.159 -0.56028H289.132L290.991 -6.65266L296.585 -6.65266L292.159 -0.56028Z" fill="#3E3E3E"/>
<path d="M313.368 1.43219C315.143 1.43219 316.759 1.82175 318.215 2.60086C319.684 3.37997 320.865 4.45922 321.759 5.83863L318.196 8.40586C317.672 7.6012 316.995 6.97536 316.165 6.52833C315.347 6.06853 314.415 5.83863 313.368 5.83863C312.257 5.83863 311.26 6.09408 310.379 6.60497C309.51 7.11586 308.827 7.82472 308.329 8.73155C307.844 9.62561 307.601 10.6346 307.601 11.7586C307.601 12.8825 307.844 13.8979 308.329 14.8048C308.827 15.6988 309.51 16.4013 310.379 16.9122C311.26 17.4231 312.257 17.6785 313.368 17.6785C314.415 17.6785 315.347 17.455 316.165 17.008C316.982 16.5482 317.653 15.916 318.177 15.1113L321.759 17.6785C320.865 19.0579 319.684 20.1372 318.215 20.9163C316.759 21.6954 315.143 22.085 313.368 22.085C311.426 22.085 309.677 21.6315 308.118 20.7247C306.56 19.8179 305.34 18.579 304.459 17.008C303.578 15.4242 303.137 13.6744 303.137 11.7586C303.137 9.84274 303.578 8.09932 304.459 6.52833C305.34 4.94457 306.56 3.69927 308.118 2.79244C309.677 1.88561 311.426 1.43219 313.368 1.43219Z" fill="#3E3E3E"/>
<path d="M329.978 21.6443H325.495V1.87284L329.978 1.87284V21.6443ZM327.737 -7.74469C328.299 -7.74469 328.803 -7.61058 329.25 -7.34236C329.697 -7.08691 330.048 -6.73568 330.304 -6.28865C330.559 -5.84162 330.687 -5.3435 330.687 -4.79429C330.687 -4.24508 330.559 -3.74696 330.304 -3.29993C330.048 -2.8529 329.697 -2.50167 329.25 -2.24622C328.803 -1.99078 328.299 -1.86305 327.737 -1.86305C327.175 -1.86305 326.67 -1.99078 326.223 -2.24622C325.776 -2.50167 325.425 -2.8529 325.169 -3.29993C324.914 -3.74696 324.786 -4.24508 324.786 -4.79429C324.786 -5.3435 324.914 -5.84162 325.169 -6.28865C325.425 -6.73568 325.776 -7.08691 326.223 -7.34236C326.67 -7.61058 327.175 -7.74469 327.737 -7.74469Z" fill="#3E3E3E"/>
<path d="M335.534 -8.26196L340.017 -8.26196V21.6443H335.534V-8.26196Z" fill="#3E3E3E"/>
</g>
<path d="M118.998 75.0644H118.954C118.865 75.0644 116.648 74.6738 114.12 73.5456C110.794 71.9834 108.576 69.727 107.734 67.0366C107.689 66.863 107.778 66.6895 107.955 66.6461C108.133 66.6027 108.31 66.6895 108.355 66.863C110.217 72.9815 118.954 74.4569 119.043 74.4569C119.22 74.5002 119.309 74.6304 119.309 74.804C119.265 74.9342 119.176 75.0644 118.998 75.0644Z" fill="#771212"/>
</g>
<defs>
<clipPath id="clip0">
<rect width="232" height="232" fill="white"/>
</clipPath>
<clipPath id="clip1">
<rect width="173.604" height="209.523" fill="white" transform="translate(32.6953 22.6904)"/>
</clipPath>
</defs>
</svg>
